<svg width="20" height="20" viewBox="0 0 20 20" fill="none" xmlns="http://www.w3.org/2000/svg">
<path fill-rule="evenodd" clip-rule="evenodd" d="M15.8333 10.4167C15.8333 10.647 15.647 10.8334 15.4166 10.8334H10.8333V15.4167C10.8333 15.647 10.647 15.8334 10.4166 15.8334H9.58332C9.35301 15.8334 9.16664 15.647 9.16664 15.4167V10.8333H4.58332C4.35301 10.8333 4.16664 10.647 4.16664 10.4166V9.58332C4.16664 9.35301 4.35301 9.16664 4.58332 9.16664H9.16664V4.58332C9.16664 4.35301 9.35301 4.16664 9.58332 4.16664H10.4166C10.647 4.16664 10.8333 4.35301 10.8333 4.58332V9.16664H15.4166C15.647 9.16664 15.8333 9.35301 15.8333 9.58332V10.4167ZM10 0C4.48609 0 0 4.48609 0 10C0 15.5139 4.48609 20 10 20C15.5139 20 20 15.5139 20 10C20 4.48609 15.5139 0 10 0Z" fill="#256EFF"/>
</svg>
