<svg width="14" height="14" viewBox="0 0 14 14" fill="none" xmlns="http://www.w3.org/2000/svg">
<path fill-rule="evenodd" clip-rule="evenodd" d="M12.9268 7.57323L6.86622 1.51269C6.53566 1.18213 6.0962 0.99999 5.62867 0.99999H2.00001C1.4485 0.99999 1 1.44847 1 2V5.62866C1 6.09619 1.18213 6.53564 1.5127 6.86621L7.57324 12.9268C7.62084 12.9744 7.68457 13 7.75001 13C7.77223 13 7.79468 12.9971 7.81667 12.991C7.90358 12.9668 7.97072 12.8979 7.99245 12.8105L8.95608 8.95607L12.8106 7.99244C12.898 7.97071 12.9668 7.90357 12.991 7.81666C13.0149 7.72999 12.9905 7.63696 12.9268 7.57324V7.57323Z" stroke="#424242"/>
</svg>
