<svg width="20" height="20" viewBox="0 0 20 20" fill="none" xmlns="http://www.w3.org/2000/svg">
<path fill-rule="evenodd" clip-rule="evenodd" d="M18.8902 7.78059L14.3902 3.11393C14.3199 3.04102 14.2247 3 14.125 3H5.87506C5.77546 3 5.68022 3.04102 5.60991 3.11393L1.10992 7.78059C1.03887 7.85464 0.999321 7.9553 1.00006 8.05972C1.00154 8.16454 1.04327 8.26443 1.11579 8.33658L9.74077 16.8921C9.8133 16.9639 9.90702 17 10.0001 17C10.0931 17 10.1868 16.9639 10.2593 16.8921L18.8843 8.33658C18.9568 8.26443 18.9986 8.16454 19 8.05972C19.0008 7.9553 18.9612 7.85468 18.8902 7.78059H18.8902Z" fill="#303C42"/>
<path fill-rule="evenodd" clip-rule="evenodd" d="M12.1576 8.44905L10 15.3465L7.84249 8.44905H12.1576Z" fill="#E7633F"/>
<path fill-rule="evenodd" clip-rule="evenodd" d="M8.02552 7.66338L10.0001 4.16076L11.9747 7.66338H8.02552Z" fill="#E7633F"/>
<path fill-rule="evenodd" clip-rule="evenodd" d="M10.6555 3.77563H13.6093L12.5555 7.15841L10.6555 3.77563Z" fill="#E7633F"/>
<path fill-rule="evenodd" clip-rule="evenodd" d="M7.44458 7.15841L6.39079 3.77563H9.34461L7.44458 7.15841Z" fill="#E7633F"/>
<path fill-rule="evenodd" clip-rule="evenodd" d="M6.81123 7.66347H2.28064L5.70373 4.11642L6.81123 7.66347Z" fill="#E7633F"/>
<path fill-rule="evenodd" clip-rule="evenodd" d="M7.05545 8.44904L9.18259 15.2619L2.30863 8.44904H7.05545Z" fill="#E7633F"/>
<path fill-rule="evenodd" clip-rule="evenodd" d="M12.9447 8.44904H17.6914L10.8175 15.2619L12.9447 8.44904Z" fill="#E7633F"/>
<path fill-rule="evenodd" clip-rule="evenodd" d="M13.1889 7.66347L14.2964 4.11642L17.7195 7.66347H13.1889Z" fill="#E7633F"/>
<path opacity="0.1" fill-rule="evenodd" clip-rule="evenodd" d="M16.3763 8.44904L10.8175 15.2619L17.6915 8.44904H16.3763Z" fill="black"/>
<path opacity="0.1" fill-rule="evenodd" clip-rule="evenodd" d="M14.2962 4.11618L16.3677 7.66739L17.7195 7.66531L14.2962 4.11618Z" fill="black"/>
<path opacity="0.2" fill-rule="evenodd" clip-rule="evenodd" d="M7.84249 8.44879L10 15.3462L9.62436 8.44879H7.84249Z" fill="white"/>
<path opacity="0.2" fill-rule="evenodd" clip-rule="evenodd" d="M9.62461 7.66313L10 4.16051L8.02552 7.66313H9.62461Z" fill="white"/>
<path opacity="0.2" fill-rule="evenodd" clip-rule="evenodd" d="M5.70387 4.11617L2.28064 7.66322H4.37328L5.70387 4.11617Z" fill="white"/>
<path opacity="0.2" fill-rule="evenodd" clip-rule="evenodd" d="M2.30864 8.44879L9.1826 15.2616L4.31096 8.44879H2.30864Z" fill="white"/>
</svg>
