<svg width="20" height="20" viewBox="0 0 20 20" fill="none" xmlns="http://www.w3.org/2000/svg">
<path fill-rule="evenodd" clip-rule="evenodd" d="M9.99998 3.47825C6.29971 3.47825 3.81303 3.00995 2.56837 2.6087C3.81303 2.20745 6.29975 1.73915 10 1.73915C13.7003 1.73915 16.187 2.20745 17.4316 2.6087C16.187 3.00995 13.7003 3.47825 9.99998 3.47825ZM16.3627 9.56523H14.5756L15.961 7.82609H17.2718L16.3627 9.56523ZM9.99998 0C5.18378 0 0 0.81648 0 2.60869C0 3.00713 0.32144 3.29221 0.71906 3.65832C2.47325 5.27363 6.62199 11.0687 6.62199 11.0687C7.04191 11.5952 7.27274 12.2503 7.27274 12.9131V18.6956C7.27274 19.592 8.68611 20 10 20C11.3139 20 12.7273 19.592 12.7273 18.6956V12.9131C12.7273 12.3439 12.9064 11.7856 13.2205 11.3043H16.3627C17.0552 11.3043 17.6784 10.9362 17.9892 10.3431L18.8983 8.60351C19.1824 8.06005 19.1521 7.4278 18.8184 6.91153C18.4968 6.41417 17.947 6.1169 17.3398 6.09525C17.3398 6.09525 18.7041 4.18956 19.2809 3.65836C19.6785 3.29221 20 3.00712 20 2.60869C20 0.81648 14.8162 0 9.99997 0H9.99998Z" fill="#424242" />
</svg>
