<svg width="35" height="34" viewBox="0 0 35 34" fill="none" xmlns="http://www.w3.org/2000/svg">
<path fill-rule="evenodd" clip-rule="evenodd" d="M28.1055 28.9279C21.5113 35.0452 11.2024 34.6644 5.07879 28.0771C-1.04431 21.4892 -0.663156 11.1896 5.93047 5.07187C12.5246 -1.04589 22.8341 -0.664585 28.9572 5.9222C35.0813 12.5106 34.6996 22.8101 28.1055 28.9279Z" fill="#FFCF48"/>
<path fill-rule="evenodd" clip-rule="evenodd" d="M28.1029 25.1137C21.5102 31.2309 11.2036 30.8501 5.08134 24.2628C2.64358 21.6393 1.2402 18.4271 0.846526 15.125C0.301476 19.7055 1.6938 24.4876 5.08134 28.1326C11.2036 34.7199 21.5102 35.1007 28.1029 28.9835C32.0702 25.3017 33.7847 20.1062 33.1892 15.1156C32.7493 18.8136 31.0474 22.3809 28.1029 25.1137V25.1137Z" fill="#DD9F17"/>
<path fill-rule="evenodd" clip-rule="evenodd" d="M5.87101 6.92661C12.4639 0.81014 22.7718 1.19088 28.8937 7.77737C31.6238 10.714 33.0566 14.3891 33.2264 18.1014C33.423 13.8886 31.9938 9.60227 28.8937 6.26754C22.7718 -0.318412 12.4639 -0.699672 5.87101 5.41732C2.21847 8.80667 0.476035 13.48 0.686807 18.0945C0.878661 13.9857 2.61688 9.94677 5.87101 6.92661Z" fill="#FFCF48"/>
<path fill-rule="evenodd" clip-rule="evenodd" d="M17.0015 1.4418C13.0606 1.4418 9.29891 2.91828 6.40933 5.59916C0.1187 11.4368 -0.24611 21.3005 5.59613 27.5872C8.53197 30.7461 12.6916 32.5582 17.0088 32.5582C20.9492 32.5582 24.7109 31.0817 27.6005 28.4003C33.8916 22.5627 34.257 12.699 28.4142 6.41277C25.4784 3.25339 21.3188 1.4418 17.0015 1.4418ZM17.0088 34C12.2921 34 7.74662 32.0198 4.53849 28.5684C-1.84466 21.6992 -1.44621 10.9215 5.42792 4.54289C8.58507 1.61356 12.6952 0 17.0015 0C21.7183 0 26.2637 1.97967 29.4718 5.43162C35.855 12.3003 35.456 23.0785 28.5819 29.4571C25.4247 32.3864 21.3151 34 17.0089 34L17.0088 34Z" fill="#E6E6E6"/>
<path fill-rule="evenodd" clip-rule="evenodd" d="M15.9031 20.1349H8.35678L9.52745 16.3256L8.35678 12.5165H15.9031V20.1349Z" fill="#A5452F"/>
<path fill-rule="evenodd" clip-rule="evenodd" d="M12.1305 13.4493L15.9036 12.5165L15.9041 14.5168L12.1305 13.4493Z" fill="#3D2B28"/>
<path fill-rule="evenodd" clip-rule="evenodd" d="M12.1305 21.249H23.5053L25.5177 13.4419H12.1305V21.249Z" fill="#E7633F"/>
<mask id="mask0_0_715" style="mask-type:alpha" maskUnits="userSpaceOnUse" x="1" y="1" width="32" height="32">
<path fill-rule="evenodd" clip-rule="evenodd" d="M17.0142 1.44358C13.0731 1.44358 9.3107 2.91989 6.42058 5.60098C0.128747 11.4374 -0.236663 21.2999 5.60669 27.5859C8.5431 30.7444 12.704 32.5563 17.0216 32.5563C20.9632 32.5563 24.7251 31.08 27.6152 28.3989C33.9076 22.562 34.273 12.6994 28.4297 6.41397C25.4927 3.25548 21.3323 1.44358 17.0142 1.44358H17.0142Z" fill="white"/>
</mask>
<g mask="url(#mask0_0_715)">
<path d="M20.4014 33.2778L25.6896 12.7857" stroke="#15161E" stroke-width="3.41895" stroke-linecap="round"/>
</g>
</svg>
