<svg width="30" height="30" viewBox="0 0 30 30" fill="none" xmlns="http://www.w3.org/2000/svg"><path fill-rule="evenodd" clip-rule="evenodd" d="M13.248 22.776h3.505a.57.57 0 0 0 .584-.556.57.57 0 0 0-.584-.557h-3.505a.57.57 0 0 0-.585.557.57.57 0 0 0 .585.556Z" fill="#424242"/><path fill-rule="evenodd" clip-rule="evenodd" d="M22.583 15a.57.57 0 0 1-.583-.556.57.57 0 0 1 .583-.555.57.57 0 0 1 .584.555.57.57 0 0 1-.584.556ZM15 23.889c-2.862 0-5.51-1.23-7.276-3.333h14.552C20.51 22.66 17.862 23.889 15 23.889Zm-8.167-9.445a.57.57 0 0 1 .584-.555.57.57 0 0 1 .583.555.57.57 0 0 1-.583.556.57.57 0 0 1-.584-.556Zm2.334 3.334a.57.57 0 0 1-.584.555.57.57 0 0 1-.583-.555.57.57 0 0 1 .583-.556.57.57 0 0 1 .584.556Zm-.584-7.222a.57.57 0 0 1 .584.555.57.57 0 0 1-.584.556A.57.57 0 0 1 8 11.11a.57.57 0 0 1 .583-.555Zm2.334-2.223a.57.57 0 0 1 .583.556.57.57 0 0 1-.583.555.57.57 0 0 1-.584-.555.57.57 0 0 1 .584-.556Zm2.77 4.832a.556.556 0 0 0 .243-.35l.498-2.368A.579.579 0 0 1 15 10a.58.58 0 0 1 .572.447l.498 2.368c.03.143.117.268.242.35A2.194 2.194 0 0 1 17.334 15c0 1.225-1.047 2.222-2.333 2.222-1.286 0-2.333-.997-2.333-2.222 0-.733.381-1.42 1.02-1.835ZM15 7.222a.57.57 0 0 1 .583.556.57.57 0 0 1-.583.555.57.57 0 0 1-.583-.555.57.57 0 0 1 .583-.556Zm4.083 1.111a.57.57 0 0 1 .584.556.57.57 0 0 1-.584.555.57.57 0 0 1-.583-.555.57.57 0 0 1 .583-.556Zm2.334 8.89a.57.57 0 0 1 .583.555.57.57 0 0 1-.583.555.57.57 0 0 1-.584-.555.57.57 0 0 1 .584-.556Zm0-6.667a.57.57 0 0 1 .583.555.57.57 0 0 1-.583.556.57.57 0 0 1-.584-.556.57.57 0 0 1 .584-.555Zm2.747-.424C22.366 7.074 18.934 5 15 5c-3.933 0-7.362 2.072-9.161 5.128C2.897 11.382 1 14.143 1 17.222 1 21.51 4.664 25 9.167 25c.945 0 1.867-.158 2.746-.457.987.288 2.02.457 3.087.457a10.97 10.97 0 0 0 3.088-.458c.88.3 1.802.458 2.745.458C25.336 25 29 21.51 29 17.222c0-3.082-1.895-5.836-4.836-7.09Z" fill="#424242"/></svg>