<svg width="30" height="30" viewBox="0 0 30 30" fill="none" xmlns="http://www.w3.org/2000/svg">
<path fill-rule="evenodd" clip-rule="evenodd" d="M20.2496 7.99976C19.2849 7.99976 18.5 8.78492 18.5 9.75025C18.5 10.7149 19.2849 11.4998 20.2496 11.4998C21.2149 11.4998 22.0001 10.7149 22.0001 9.75025C22.0001 8.78492 21.2149 7.99976 20.2496 7.99976ZM6.03406 23.1907L6.03413 23.1917C5.12517 23.259 4.23821 23.7273 3.53663 24.5103C2.76804 25.3677 2.30308 26.5081 2.19203 27.8076C3.49136 27.6965 4.63214 27.2319 5.48996 26.4631C6.27265 25.762 6.74079 24.8752 6.80813 23.9666L6.03413 23.1917L6.03406 23.1907ZM12.0803 29.0002C11.9577 29.0002 11.8397 28.9624 11.7392 28.8904C11.5876 28.7803 11.4971 28.6033 11.4971 28.417V23.989L10.9166 23.4084L8.99603 25.3291C8.88481 25.4394 8.73842 25.5002 8.58383 25.5002C8.42866 25.5002 8.28196 25.4394 8.17073 25.3291L7.79633 24.9548C7.46767 26.0486 6.7231 27.0488 5.70147 27.7705C4.56319 28.5749 3.13927 29.0002 1.58363 29.0002C1.26205 29.0002 1.00043 28.7383 1.00043 28.4163C1.00043 26.8606 1.42547 25.4368 2.2296 24.2988C2.95182 23.2764 3.95169 22.5322 5.04503 22.2034L4.67063 21.8291C4.44351 21.602 4.44351 21.2317 4.67063 21.0037L6.59213 19.0832L6.00893 18.5H1.58363C1.39666 18.5 1.21969 18.4094 1.11023 18.2578C1.00063 18.1059 0.970681 17.9094 1.03013 17.7322C2.29446 13.9402 4.31737 11.5757 10.4864 11.5041C13.3063 8.05687 15.6824 5.781 18.1901 4.12475C21.3728 2.02221 24.7178 1.00024 28.4162 1.00024C28.7383 1.00024 29.0003 1.26196 29.0003 1.58349C29.0003 5.28271 27.978 8.62841 25.8748 11.8113C24.2178 14.3193 21.9411 16.6956 18.4928 19.5161C18.4206 25.6846 16.0562 27.7065 12.2648 28.9697C12.2053 28.99 12.1433 29.0002 12.0803 29.0002V29.0002Z" fill="#424242"/>
</svg>
