<svg width="90" height="15" viewBox="0 0 90 15" fill="none" xmlns="http://www.w3.org/2000/svg"><path fill-rule="evenodd" clip-rule="evenodd" d="M.127 7.223c0-4.43 3.39-7.21 7.552-7.21 3.116 0 5 1.65 5.962 3.386l-3.013 1.568c-.523-.92-1.59-1.777-2.95-1.777-2.28 0-3.89 1.735-3.89 4.033 0 2.28 1.61 4.035 3.89 4.035 1.026 0 2.072-.418 2.574-.837V9.335H7.114V6.179h6.736v5.538c-1.486 1.652-3.535 2.717-6.171 2.717-4.163 0-7.552-2.78-7.552-7.21Zm21.705 4.372v-.899c-.334-.48-1.087-.71-1.799-.71-.836 0-1.61.376-1.61 1.17 0 .794.774 1.17 1.61 1.17.712 0 1.465-.25 1.8-.73Zm0 2.592v-1.004c-.627.753-1.84 1.254-3.137 1.254-1.548 0-3.472-1.066-3.472-3.323 0-2.445 1.924-3.26 3.472-3.26 1.338 0 2.53.439 3.137 1.191V8.042c0-.878-.753-1.484-2.05-1.484-1.003 0-2.007.398-2.823 1.087l-1.192-2.237c1.297-1.107 3.032-1.567 4.58-1.567 2.426 0 4.706.899 4.706 4.034v6.312h-3.22Zm18.302-.004V8.041c0-.773-.376-1.358-1.338-1.358-.879 0-1.506.565-1.82.982v6.518h-3.22V8.041c0-.773-.356-1.358-1.318-1.358-.879 0-1.485.565-1.82.982v6.518h-3.22V4.093h3.22v1.232c.44-.584 1.736-1.482 3.326-1.482 1.463 0 2.447.606 2.865 1.796.585-.878 1.904-1.796 3.492-1.796 1.862 0 3.033.96 3.033 3.029v7.311h-3.2ZM50.4 6.433c-1.403 0-1.946.836-2.072 1.567h4.162c-.083-.71-.606-1.567-2.09-1.567Zm-5.355 2.695c0-2.925 2.195-5.287 5.354-5.287 2.991 0 5.166 2.195 5.166 5.622v.732H48.37c.23.898 1.067 1.65 2.53 1.65.712 0 1.883-.313 2.47-.856l1.4 2.11c-1.004.9-2.677 1.338-4.225 1.338-3.116 0-5.5-2.027-5.5-5.309Zm17.253 2.467c1.276 0 2.238-.94 2.238-2.466 0-1.505-.962-2.445-2.238-2.445-.69 0-1.527.376-1.924.92v3.092c.397.544 1.234.9 1.924.9Zm-5.146 2.592V.247h3.222v5.036c.794-1.002 1.882-1.442 2.99-1.442 2.531 0 4.456 1.986 4.456 5.288 0 3.427-1.966 5.308-4.455 5.308-1.13 0-2.155-.46-2.991-1.421v1.17h-3.222Zm18.321-2.592v-.899c-.335-.48-1.087-.71-1.8-.71-.835 0-1.61.376-1.61 1.17 0 .794.775 1.17 1.61 1.17.713 0 1.465-.25 1.8-.73Zm0 2.592v-1.004c-.627.753-1.84 1.254-3.137 1.254-1.549 0-3.472-1.066-3.472-3.323 0-2.445 1.923-3.26 3.472-3.26 1.338 0 2.53.439 3.137 1.191V8.042c0-.878-.753-1.484-2.05-1.484-1.003 0-2.007.398-2.823 1.087l-1.193-2.237c1.297-1.107 3.033-1.567 4.58-1.567 2.427 0 4.707.899 4.707 4.034v6.312h-3.22Zm5.567-.004V.243h3.211v13.94H81.04Zm5.555 0V.243h3.221v13.94h-3.221Z" fill="#292C3B"/></svg>