<svg width="44" height="44" viewBox="0 0 44 44" fill="none" xmlns="http://www.w3.org/2000/svg">
<path fill-rule="evenodd" clip-rule="evenodd" d="M44 22C44 9.86941 34.1315 0 22 0C9.86846 0 0 9.86941 0 22C0 27.9922 2.60468 32.4399 7.70352 35.2554C8.71638 42.3576 11.8065 44 22 44C31.9088 44 35.1111 42.4633 36.2128 35.8542C41.3666 33.1889 44 28.5424 44 22Z" fill="#303C42"/>
<path fill-rule="evenodd" clip-rule="evenodd" d="M41.9957 24.5215C39.7894 22.4528 38.5 19.5513 38.5 16.4973C38.5 14.9353 38.8364 13.3988 39.479 11.9808C41.1769 14.9366 42.1633 18.3518 42.1633 21.9996C42.1633 22.8869 42.0971 23.7187 41.9958 24.5215H41.9957Z" fill="#F2F2F2"/>
<path fill-rule="evenodd" clip-rule="evenodd" d="M12.8366 12.8315C12.8366 7.76794 16.9392 3.66311 22 3.66311C27.0608 3.66311 31.1634 7.76794 31.1634 12.8315C31.1634 17.8951 27.0608 21.9999 22 21.9999C16.9392 21.9999 12.8366 17.8951 12.8366 12.8315Z" fill="#F2F2F2"/>
<path fill-rule="evenodd" clip-rule="evenodd" d="M4.52103 11.9808C5.16361 13.3988 5.5 14.9353 5.5 16.4973C5.5 19.528 4.22549 22.4154 2.04345 24.4816C1.92084 23.6866 1.83662 22.8683 1.83662 21.9997C1.83662 18.3518 2.82306 14.9367 4.52103 11.9808Z" fill="#F2F2F2"/>
<path fill-rule="evenodd" clip-rule="evenodd" d="M22 42.1634C11.27 42.1634 9.88823 40.4205 9.29759 33.0334C11.9358 30.176 16.7576 28.4134 22 28.4134C27.2424 28.4134 32.0642 30.176 34.7024 33.0334C34.1118 40.4205 32.73 42.1634 22 42.1634Z" fill="#FEE4D0"/>
<path fill-rule="evenodd" clip-rule="evenodd" d="M36.4895 33.6005C36.5146 33.3296 36.5438 33.0727 36.5651 32.7881C36.5829 32.5473 36.5042 32.3092 36.3484 32.1248C33.4318 28.707 27.9334 26.5836 21.9999 26.5836C16.0665 26.5836 10.568 28.707 7.65146 32.1248C7.49566 32.3092 7.41693 32.5473 7.43482 32.7881C7.43972 32.8534 7.44711 32.91 7.45218 32.9745C4.99076 31.3307 3.35032 29.1531 2.50845 26.4851C5.53167 24.0561 7.33272 20.3837 7.33272 16.5003C7.33272 14.2997 6.73604 12.1554 5.6543 10.2346C9.11341 5.44314 14.6137 2.23828 20.8763 1.89075C15.3362 2.45527 10.9995 7.14719 10.9995 12.8337C10.9995 18.8994 15.934 23.8336 21.9999 23.8336C28.0659 23.8336 33.0003 18.8994 33.0003 12.8337C33.0003 7.14711 28.6637 2.45528 23.1235 1.89067C29.3861 2.2382 34.8864 5.44306 38.3455 10.2345C37.2638 12.1554 36.6671 14.2996 36.6671 16.5003C36.6671 20.4364 38.5103 24.1458 41.6013 26.5737C40.797 29.6118 39.1085 31.941 36.4895 33.6005L36.4895 33.6005Z" fill="#D32F2F"/>
<path fill-rule="evenodd" clip-rule="evenodd" d="M41.9957 24.5215C39.7894 22.4528 38.5 19.5513 38.5 16.4973C38.5 14.9353 38.8364 13.3988 39.479 11.9808C41.1769 14.9366 42.1633 18.3517 42.1633 21.9996C42.1633 22.8869 42.0971 23.7187 41.9958 24.5215H41.9957Z" fill="#F2F2F2"/>
<path fill-rule="evenodd" clip-rule="evenodd" d="M36.4895 33.6005C36.5146 33.3296 36.5438 33.0727 36.5651 32.7881C36.5829 32.5473 36.5042 32.3092 36.3484 32.1248C33.4318 28.707 27.9334 26.5836 21.9999 26.5836C16.0665 26.5836 10.568 28.707 7.65146 32.1248C7.49566 32.3092 7.41693 32.5473 7.43482 32.7881C7.43972 32.8534 7.44711 32.91 7.45218 32.9745C4.99076 31.3307 3.35032 29.1531 2.50845 26.4851C5.53167 24.0561 7.33272 20.3837 7.33272 16.5003C7.33272 14.2997 6.73604 12.1554 5.6543 10.2346C9.11341 5.44314 14.6137 2.23828 20.8763 1.89075C15.3362 2.45527 10.9995 7.14719 10.9995 12.8337C10.9995 18.8994 15.934 23.8336 21.9999 23.8336C28.0659 23.8336 33.0003 18.8994 33.0003 12.8337C33.0003 7.14711 28.6637 2.45528 23.1235 1.89067C29.3861 2.2382 34.8864 5.44306 38.3455 10.2345C37.2638 12.1554 36.6671 14.2996 36.6671 16.5003C36.6671 20.4364 38.5103 24.1458 41.6013 26.5737C40.797 29.6118 39.1085 31.941 36.4895 33.6005L36.4895 33.6005Z" fill="#D32F2F"/>
<path fill-rule="evenodd" clip-rule="evenodd" d="M22 42.1634C32.73 42.1634 34.1118 40.4205 34.7024 33.0334C32.0642 30.176 27.2424 28.4134 22 28.4134C16.7576 28.4134 11.9358 30.176 9.29759 33.0334L18.3302 42.0688C19.414 42.1339 20.6285 42.1635 22 42.1635L22 42.1634Z" fill="url(#paint0_linear_0_66)"/>
<path fill-rule="evenodd" clip-rule="evenodd" d="M16.9616 31.1632C16.2472 31.1632 15.5866 31.6075 15.5866 34.8316C15.5866 38.0558 16.2473 38.5 16.9616 38.5C17.6759 38.5 18.3366 38.0558 18.3366 34.8316C18.3366 31.6075 17.676 31.1632 16.9616 31.1632Z" fill="#303C42"/>
<path fill-rule="evenodd" clip-rule="evenodd" d="M27.0384 38.4999C27.7528 38.4999 28.4134 38.0557 28.4134 34.8315C28.4134 31.6074 27.7527 31.1631 27.0384 31.1631C26.3241 31.1631 25.6634 31.6074 25.6634 34.8315C25.6634 38.0557 26.324 38.4999 27.0384 38.4999Z" fill="#303C42"/>
<path fill-rule="evenodd" clip-rule="evenodd" d="M44 22C44 9.86941 34.1315 0 22 0C9.86846 0 0 9.86941 0 22C0 27.9922 2.60468 32.4399 7.70352 35.2554C8.71638 42.3576 11.8065 44 22 44C31.9088 44 35.1111 42.4633 36.2128 35.8542C41.3666 33.1889 44 28.5424 44 22Z" fill="url(#paint1_linear_0_66)"/>
<path opacity="0.1" fill-rule="evenodd" clip-rule="evenodd" d="M2.04171 24.4816C2.37264 24.1684 2.67521 23.8308 2.96316 23.4822C2.59381 23.35 2.24113 23.2015 1.8827 23.0587C1.91898 23.543 1.9702 24.0184 2.04171 24.4816Z" fill="black"/>
<path opacity="0.1" fill-rule="evenodd" clip-rule="evenodd" d="M38.5939 17.839C38.9117 20.3899 40.1167 22.759 41.9959 24.5216C42.0971 23.7189 42.1634 22.8874 42.1634 22.0003C42.1634 19.5686 41.6913 17.256 40.8961 15.0983C40.2556 16.0601 39.481 16.9752 38.5939 17.839H38.5939Z" fill="black"/>
<path opacity="0.1" fill-rule="evenodd" clip-rule="evenodd" d="M4.80352 24.0745C4.14607 24.9635 3.38584 25.7824 2.50839 26.4872C3.35026 29.1545 4.9907 31.3314 7.45211 32.9747C7.44704 32.9102 7.43965 32.8536 7.43475 32.7883C7.41687 32.5476 7.4956 32.3095 7.6514 32.1252C10.5681 28.7084 16.0665 26.5857 21.9999 26.5857C27.9333 26.5857 33.4318 28.7084 36.3483 32.1252C36.5042 32.3095 36.5829 32.5476 36.565 32.7883C36.5438 33.0728 36.5145 33.3297 36.4895 33.6005C39.1084 31.9415 40.7969 29.613 41.6012 26.5758C39.2455 24.7261 37.6216 22.1304 36.979 19.2592C32.0156 23.1677 24.4752 25.6693 16.0413 25.6693C12.029 25.6694 8.23124 25.0884 4.8035 24.0745H4.80352Z" fill="black"/>
<defs>
<linearGradient id="paint0_linear_0_66" x1="-2.63391" y1="54.5021" x2="-2.38641" y2="53.6567" gradientUnits="userSpaceOnUse">
<stop stop-opacity="0.1"/>
<stop offset="1" stop-opacity="0.01"/>
</linearGradient>
<linearGradient id="paint1_linear_0_66" x1="-3.5" y1="55.87" x2="-1.64" y2="55.01" gradientUnits="userSpaceOnUse">
<stop stop-color="white" stop-opacity="0.2"/>
<stop offset="1" stop-color="white" stop-opacity="0.01"/>
</linearGradient>
</defs>
</svg>
