<svg width="20" height="20" viewBox="0 0 20 20" fill="none" xmlns="http://www.w3.org/2000/svg"><path fill-rule="evenodd" clip-rule="evenodd" d="M17.273 8.636a.455.455 0 0 1-.455.455h-.454a.454.454 0 0 0-.455.454v1.819a.455.455 0 0 1-.91 0V9.545a.454.454 0 0 0-.454-.454h-.454a.455.455 0 0 1-.455-.455V6.818c0-.25.204-.454.455-.454h.454A.454.454 0 0 0 15 5.909V3.182a.455.455 0 0 1 .91 0v2.727c0 .251.202.455.454.455h.454c.251 0 .455.203.455.454v1.818Zm-1.819 8.637a1.82 1.82 0 0 1-1.818-1.819 1.82 1.82 0 0 1 1.819-1.818 1.82 1.82 0 0 1 1.818 1.819 1.82 1.82 0 0 1-1.819 1.818Zm-3.636-7.728a.455.455 0 0 1-.454.455h-.455a.454.454 0 0 0-.455.455v.909a.455.455 0 0 1-.909 0v-.91A.454.454 0 0 0 9.091 10h-.455a.455.455 0 0 1-.454-.455V7.727c0-.25.203-.454.454-.454h.455a.454.454 0 0 0 .454-.455V3.182a.455.455 0 0 1 .91 0v3.636c0 .251.203.455.454.455h.455c.25 0 .454.203.454.454v1.818ZM10 17.273a1.82 1.82 0 0 1-1.818-1.819A1.82 1.82 0 0 1 10 13.636a1.82 1.82 0 0 1 1.818 1.819A1.82 1.82 0 0 1 10 17.273ZM6.364 6.818a.455.455 0 0 1-.455.455h-.454A.454.454 0 0 0 5 7.727v3.637a.455.455 0 0 1-.91 0V7.727a.454.454 0 0 0-.454-.454h-.454a.455.455 0 0 1-.455-.455V5c0-.25.204-.455.455-.455h.454a.454.454 0 0 0 .455-.454v-.91a.455.455 0 0 1 .909 0v.91c0 .251.203.454.455.454h.454c.25 0 .455.204.455.455v1.818ZM4.545 17.273a1.82 1.82 0 0 1-1.818-1.819 1.82 1.82 0 0 1 1.818-1.818 1.82 1.82 0 0 1 1.819 1.819 1.82 1.82 0 0 1-1.819 1.818ZM18.182 0H1.818A1.82 1.82 0 0 0 0 1.818v16.364A1.82 1.82 0 0 0 1.818 20h16.364A1.82 1.82 0 0 0 20 18.182V1.818A1.82 1.82 0 0 0 18.182 0Z" fill="#424242"/></svg>