<svg width="20" height="20" viewBox="0 0 20 20" fill="none" xmlns="http://www.w3.org/2000/svg">
<path fill-rule="evenodd" clip-rule="evenodd" d="M14.8552 19C14.7114 19 14.57 18.9589 14.4465 18.8805L9.98958 16.0588L5.55337 18.8672C5.29692 19.0315 4.94657 19.0219 4.69732 18.8415C4.44247 18.6599 4.31583 18.336 4.37735 18.0187L5.40561 12.729L1.28339 9.19527C1.03333 8.97964 0.93826 8.63622 1.0405 8.31855C1.13956 8.00339 1.41282 7.7848 1.73517 7.76492L7.23077 7.41159L9.28127 2.48934C9.40473 2.19199 9.68677 1.99998 9.99996 1.99998C10.0507 1.99998 10.099 2.0095 10.1438 2.02695C10.3974 2.07548 10.6147 2.25171 10.7186 2.50264L12.7691 7.42445L18.2651 7.77778C18.5879 7.79894 18.8607 8.01708 18.9602 8.33392C19.0613 8.65119 18.9658 8.99413 18.7165 9.20773L14.5943 12.7419L15.6226 18.0312C15.6841 18.3489 15.5575 18.6728 15.2998 18.8561C15.1712 18.9498 15.0166 19 14.8552 19L14.8552 19Z" fill="#303C42"/>
<path fill-rule="evenodd" clip-rule="evenodd" d="M9.98277 2.8866L7.87829 7.9887C7.81715 8.13546 7.68169 8.23412 7.52787 8.24406L1.7802 8.61341L6.11142 12.2352C6.22769 12.3351 6.28162 12.493 6.25205 12.6468L5.17523 18.1834L9.78376 15.1904C9.91042 15.1108 10.0687 15.1079 10.1969 15.1825C10.2293 15.2016 10.2584 15.2244 10.2844 15.2505L14.8701 18.1523L13.7414 12.6597C13.7118 12.5058 13.7657 12.3479 13.882 12.248L18.1169 8.61998L12.4655 8.25684C12.3117 8.24688 12.1763 8.14823 12.1151 8.00147L9.98277 2.8866Z" fill="#FFCF48"/>
<path opacity="0.1" fill-rule="evenodd" clip-rule="evenodd" d="M12.1701 8.0762C12.152 8.05075 12.1255 8.03333 12.1131 8.00357L9.98369 2.88659L9.96535 10.5161L12.1701 8.0762Z" fill="black"/>
<path opacity="0.1" fill-rule="evenodd" clip-rule="evenodd" d="M13.8058 12.3657C13.8292 12.3258 13.847 12.2822 13.8827 12.2515L18.1172 8.61836L9.96536 10.514L13.8058 12.3657Z" fill="black"/>
<path opacity="0.1" fill-rule="evenodd" clip-rule="evenodd" d="M9.98368 15.1311C10.0576 15.1283 10.1317 15.1443 10.1981 15.1828C10.2304 15.2018 10.2596 15.2246 10.2856 15.2507L14.875 18.1508L9.96531 10.5159L9.98368 15.1311Z" fill="black"/>
<path opacity="0.1" fill-rule="evenodd" clip-rule="evenodd" d="M6.18973 12.3491C6.24346 12.4394 6.27582 12.5414 6.25514 12.6489L5.17895 18.1833L9.96519 10.5159L6.18973 12.3491Z" fill="black"/>
<path opacity="0.1" fill-rule="evenodd" clip-rule="evenodd" d="M7.81171 8.07654C7.74058 8.16895 7.64552 8.23869 7.52846 8.24627L1.78017 8.61567L9.96523 10.5159L7.81171 8.07654Z" fill="black"/>
</svg>
